{"title":"Sokurov - Odinokiy Golos Cheloveka AKA The Lonely Voice of Man","uid":8367557,"size":1046957937,"categoryP":"video","categoryS":"movies","magnet":"?xt=urn:btih:58861640857eca3fe475f8687120bd18068d7185&amp;dn=Sokurov+-+Odinokiy+Golos+Cheloveka+AKA+The+Lonely+Voice+of+Man&amp;tr=udp%3A%2F%2Ftracker.openbittorrent.com%3A80&amp;tr=udp%3A%2F%2Fopen.demonii.com%3A1337&amp;tr=udp%3A%2F%2Ftracker.coppersurfer.tk%3A6969&amp;tr=udp%3A%2F%2Fexodus.desync.com%3A6969","seeders":1,"leechers":1,"uploader":"moonflux","files":3,"time":1365812211,"description":"Complete name : The Lonely Voice Of Man [1987]/Aleksandr Sokurov - The Lonely Voice Of Man [1987].avi\nFormat : AVI\nFormat/Info : Audio Video Interleave\nFile size : 998 MiB\nDuration : 1h 22mn\nOverall bit rate : 1 702 Kbps\nWriting application : VirtualDubMod 1.5.4.1 (build 2178/release)\nWriting library : VirtualDubMod build 2178/release\n\nVideo\nID : 0\nFormat : MPEG-4 Visual\nFormat profile : Advanced Simple@L5\nFormat settings, BVOP : 1\nFormat settings, QPel : No\nFormat settings, GMC : No warppoints\nFormat settings, Matrix : Custom\nCodec ID : XVID\nCodec ID/Hint : XviD\nDuration : 1h 22mn\nBit rate : 1 503 Kbps\nWidth : 704 pixels\nHeight : 528 pixels\nDisplay aspect ratio : 4:3\nFrame rate : 25.000 fps\nColor space : YUV\nChroma subsampling : 4:2:0\nBit depth : 8 bits\nScan type : Progressive\nCompression mode : Lossy\nBits/(Pixel*Frame) : 0.162\nStream size : 882 MiB (88%)\nWriting library : XviD 1.2.0.dev47 (UTC 2006-11-01)\n\nAudio\nID : 1\nFormat : AC-3\nFormat/Info : Audio Coding 3\nMode extension : CM (complete main)\nCodec ID : 2000\nDuration : 1h 22mn\nBit rate mode : Constant\nBit rate : 192 Kbps\nChannel(s) : 2 channels\nChannel positions : Front: L R\nSampling rate : 48.0 KHz\nBit depth : 16 bits\nCompression mode : Lossy\nStream size : 113 MiB (11%)\nAlignment : Split accross interleaves\nInterleave, duration : 96 ms (2.40 video frames)\nInterleave, preload duration : 96 ms\n\n","torrent":{"xt":"urn:btih:58861640857eca3fe475f8687120bd18068d7185","amp;dn":"Sokurov+-+Odinokiy+Golos+Cheloveka+AKA+The+Lonely+Voice+of+Man","amp;tr":["udp%3A%2F%2Ftracker.openbittorrent.com%3A80","udp%3A%2F%2Fopen.demonii.com%3A1337","udp%3A%2F%2Ftracker.coppersurfer.tk%3A6969","udp%3A%2F%2Fexodus.desync.com%3A6969"],"infoHash":"58861640857eca3fe475f8687120bd18068d7185","infoHashBuffer":{"type":"Buffer","data":[88,134,22,64,133,126,202,63,228,117,248,104,113,32,189,24,6,141,113,133]},"announce":[],"urlList":[]}}